<mxfile host="app.diagrams.net" modified="2024-04-23T16:27:51.387Z" agent="Mozilla/5.0 (Windows NT 10.0; Win64; x64) AppleWebKit/537.36 (KHTML, like Gecko) Chrome/123.0.0.0 Safari/537.36" etag="iYJgjlHipiFrI9BFS3Yb" version="24.2.8" type="device">
  <diagram name="Seite-1" id="DjCrLJOEe4nHxTjUXNSd">
    <mxGraphModel dx="1434" dy="780" grid="1" gridSize="10" guides="1" tooltips="1" connect="1" arrows="1" fold="1" page="1" pageScale="1" pageWidth="827" pageHeight="1169" math="0" shadow="0">
      <root>
        <mxCell id="0" />
        <mxCell id="1" parent="0" />
        <mxCell id="vNHbbHK30uQT_Sx62RbP-1" value=":Databroker" style="shape=umlLifeline;perimeter=lifelinePerimeter;whiteSpace=wrap;html=1;container=1;collapsible=0;recursiveResize=0;outlineConnect=0;rounded=1;shadow=0;comic=0;labelBackgroundColor=none;strokeWidth=1;fontFamily=Verdana;fontSize=12;align=center;" parent="1" vertex="1">
          <mxGeometry x="10" y="10" width="280" height="500" as="geometry" />
        </mxCell>
        <mxCell id="vNHbbHK30uQT_Sx62RbP-2" value="" style="html=1;points=[];perimeter=orthogonalPerimeter;rounded=0;shadow=0;comic=0;labelBackgroundColor=none;strokeWidth=1;fontFamily=Verdana;fontSize=12;align=center;" parent="vNHbbHK30uQT_Sx62RbP-1" vertex="1">
          <mxGeometry x="135" y="130" width="10" height="260" as="geometry" />
        </mxCell>
        <mxCell id="vNHbbHK30uQT_Sx62RbP-3" value=":Provider" style="shape=umlLifeline;perimeter=lifelinePerimeter;whiteSpace=wrap;html=1;container=1;collapsible=0;recursiveResize=0;outlineConnect=0;rounded=1;shadow=0;comic=0;labelBackgroundColor=none;strokeWidth=1;fontFamily=Verdana;fontSize=12;align=center;" parent="1" vertex="1">
          <mxGeometry x="410" y="10" width="100" height="510" as="geometry" />
        </mxCell>
        <mxCell id="vNHbbHK30uQT_Sx62RbP-4" value="" style="html=1;points=[];perimeter=orthogonalPerimeter;rounded=0;shadow=0;comic=0;labelBackgroundColor=none;strokeWidth=1;fontFamily=Verdana;fontSize=12;align=center;" parent="vNHbbHK30uQT_Sx62RbP-3" vertex="1">
          <mxGeometry x="42.5" y="90" width="15" height="300" as="geometry" />
        </mxCell>
        <mxCell id="vNHbbHK30uQT_Sx62RbP-5" value="" style="html=1;points=[];perimeter=orthogonalPerimeter;rounded=0;shadow=0;comic=0;labelBackgroundColor=none;strokeWidth=1;fontFamily=Verdana;fontSize=12;align=center;" parent="vNHbbHK30uQT_Sx62RbP-3" vertex="1">
          <mxGeometry x="57.5" y="131" width="10" height="259" as="geometry" />
        </mxCell>
        <mxCell id="vNHbbHK30uQT_Sx62RbP-53" value="" style="endArrow=classic;html=1;rounded=0;exitX=0.977;exitY=0.999;exitDx=0;exitDy=0;exitPerimeter=0;" parent="vNHbbHK30uQT_Sx62RbP-3" edge="1">
          <mxGeometry width="50" height="50" relative="1" as="geometry">
            <mxPoint x="-260" y="390" as="sourcePoint" />
            <mxPoint x="60" y="390" as="targetPoint" />
          </mxGeometry>
        </mxCell>
        <mxCell id="vNHbbHK30uQT_Sx62RbP-54" value="SetResponse" style="edgeLabel;html=1;align=center;verticalAlign=middle;resizable=0;points=[];" parent="vNHbbHK30uQT_Sx62RbP-53" vertex="1" connectable="0">
          <mxGeometry x="-0.0437" relative="1" as="geometry">
            <mxPoint y="-8" as="offset" />
          </mxGeometry>
        </mxCell>
        <mxCell id="vNHbbHK30uQT_Sx62RbP-12" value="" style="endArrow=classic;html=1;rounded=0;exitX=-0.008;exitY=0;exitDx=0;exitDy=0;exitPerimeter=0;entryX=0.967;entryY=0.001;entryDx=0;entryDy=0;entryPerimeter=0;" parent="1" source="vNHbbHK30uQT_Sx62RbP-5" target="vNHbbHK30uQT_Sx62RbP-2" edge="1">
          <mxGeometry width="50" height="50" relative="1" as="geometry">
            <mxPoint x="250" y="220" as="sourcePoint" />
            <mxPoint x="300" y="170" as="targetPoint" />
          </mxGeometry>
        </mxCell>
        <mxCell id="vNHbbHK30uQT_Sx62RbP-13" value="set(all current_values)" style="edgeLabel;html=1;align=center;verticalAlign=middle;resizable=0;points=[];" parent="vNHbbHK30uQT_Sx62RbP-12" vertex="1" connectable="0">
          <mxGeometry x="0.0365" y="-1" relative="1" as="geometry">
            <mxPoint y="-7" as="offset" />
          </mxGeometry>
        </mxCell>
        <mxCell id="vNHbbHK30uQT_Sx62RbP-14" value=":CAN Bus" style="shape=umlLifeline;perimeter=lifelinePerimeter;whiteSpace=wrap;html=1;container=1;collapsible=0;recursiveResize=0;outlineConnect=0;rounded=1;shadow=0;comic=0;labelBackgroundColor=none;strokeWidth=1;fontFamily=Verdana;fontSize=12;align=center;" parent="1" vertex="1">
          <mxGeometry x="630" y="10" width="120" height="510" as="geometry" />
        </mxCell>
        <mxCell id="vNHbbHK30uQT_Sx62RbP-15" value="" style="html=1;points=[];perimeter=orthogonalPerimeter;rounded=0;shadow=0;comic=0;labelBackgroundColor=none;strokeWidth=1;fontFamily=Verdana;fontSize=12;align=center;" parent="vNHbbHK30uQT_Sx62RbP-14" vertex="1">
          <mxGeometry x="55" y="90" width="10" height="300" as="geometry" />
        </mxCell>
        <mxCell id="vNHbbHK30uQT_Sx62RbP-21" value="" style="endArrow=classic;html=1;rounded=0;entryX=-0.025;entryY=0;entryDx=0;entryDy=0;entryPerimeter=0;exitX=0.991;exitY=0;exitDx=0;exitDy=0;exitPerimeter=0;" parent="1" source="vNHbbHK30uQT_Sx62RbP-4" target="vNHbbHK30uQT_Sx62RbP-15" edge="1">
          <mxGeometry width="50" height="50" relative="1" as="geometry">
            <mxPoint x="473" y="191" as="sourcePoint" />
            <mxPoint x="801" y="190" as="targetPoint" />
          </mxGeometry>
        </mxCell>
        <mxCell id="vNHbbHK30uQT_Sx62RbP-22" value="readCanBus()" style="edgeLabel;html=1;align=center;verticalAlign=middle;resizable=0;points=[];" parent="vNHbbHK30uQT_Sx62RbP-21" vertex="1" connectable="0">
          <mxGeometry x="0.0128" y="-2" relative="1" as="geometry">
            <mxPoint y="-10" as="offset" />
          </mxGeometry>
        </mxCell>
        <mxCell id="vNHbbHK30uQT_Sx62RbP-43" value="" style="endArrow=classic;html=1;rounded=0;entryX=1.028;entryY=0;entryDx=0;entryDy=0;entryPerimeter=0;" parent="1" source="vNHbbHK30uQT_Sx62RbP-15" target="vNHbbHK30uQT_Sx62RbP-5" edge="1">
          <mxGeometry width="50" height="50" relative="1" as="geometry">
            <mxPoint x="80" y="370" as="sourcePoint" />
            <mxPoint x="130" y="320" as="targetPoint" />
          </mxGeometry>
        </mxCell>
        <mxCell id="vNHbbHK30uQT_Sx62RbP-44" value="SignalValuesResponse" style="edgeLabel;html=1;align=center;verticalAlign=middle;resizable=0;points=[];" parent="vNHbbHK30uQT_Sx62RbP-43" vertex="1" connectable="0">
          <mxGeometry x="0.0808" relative="1" as="geometry">
            <mxPoint y="-8" as="offset" />
          </mxGeometry>
        </mxCell>
      </root>
    </mxGraphModel>
  </diagram>
</mxfile>
